# xmcd CD database file
#
# Track frame offsets:
#	150
#	19776
#	33355
#	51608
#	71408
#	92884
#	110207
#	129369
#	148308
#	166065
#	182356
#	200059
#	211856
#	228798
#	245482
#	257238
#	271830
#	286109
#	300994
#	322208
#
# Disc length: 4505 seconds
#
# Revision: 0
# Processed by: cddbd v1.5.2PL0 Copyright (c) Steve Scherf et al.
# Submitted via: CDex 1.70beta2
#
DISCID=25119714
DTITLE=Various Artist - Sound Check Country
DYEAR=1998
DGENRE=Country
TTITLE0=Alan Jackson - Gone country
TTITLE1=Brooks and Dunn - Brand new man
TTITLE2=Trisha Yearwood - How do I live
TTITLE3=Mavericks - Dance the night away
TTITLE4=Alabama - Dancin', Shaggin' on the Boulevard
TTITLE5=Pam Tillis - The river and the Highway
TTITLE6=Wynonna - No one else on earth
TTITLE7=Big house - Love ain't easy
TTITLE8=Clint Black - State of mind
TTITLE9=Martina McBride - A broken wing
TTITLE10=Judds - Love can build a bridge
TTITLE11=Sherrie Austin - Put your heart into it 
TTITLE12=Sawyer Brown - The walk
TTITLE13=Diamond Rio - Love a little stronger
TTITLE14=BR5-49 - Wild one
TTITLE15=Mindy McCready - Guys do it all the time
TTITLE16=Vince Gill - A little more love
TTITLE17=Matraca Berg - That train don't run
TTITLE18=Dolly Parton - Peace train
TTITLE19=Brooks and Dunn - My Maria
EXTD=YEAR: 1998
EXTT0=
EXTT1=
EXTT2=
EXTT3=
EXTT4=
EXTT5=
EXTT6=
EXTT7=
EXTT8=
EXTT9=
EXTT10=
EXTT11=
EXTT12=
EXTT13=
EXTT14=
EXTT15=
EXTT16=
EXTT17=
EXTT18=
EXTT19=
PLAYORDER=
